<svg width="38" height="25" viewBox="0 0 38 25" fill="none" xmlns="http://www.w3.org/2000/svg">
<line x1="15.375" y1="4.375" x2="15.375" y2="20" stroke="white" stroke-width="2"/>
<line x1="7.5" y1="12.125" x2="23.75" y2="12.125" stroke="white" stroke-width="2"/>
<mask id="path-3-inside-1" fill="white">
<path fill-rule="evenodd" clip-rule="evenodd" d="M31.25 0H0V25H31.25V13.7903L37.9688 17.2039V5.29608L31.25 8.70966V0Z"/>
</mask>
<path d="M0 0V-2H-2V0H0ZM31.25 0H33.25V-2H31.25V0ZM0 25H-2V27H0V25ZM31.25 25V27H33.25V25H31.25ZM31.25 13.7903L32.1559 12.0073L29.25 10.5309V13.7903H31.25ZM37.9688 17.2039L37.0628 18.987L39.9688 20.4634V17.2039H37.9688ZM37.9688 5.29608H39.9688V2.03661L37.0628 3.51301L37.9688 5.29608ZM31.25 8.70966H29.25V11.9691L32.1559 10.4927L31.25 8.70966ZM0 2H31.25V-2H0V2ZM2 25V0H-2V25H2ZM31.25 23H0V27H31.25V23ZM29.25 13.7903V25H33.25V13.7903H29.25ZM38.8747 15.4209L32.1559 12.0073L30.3441 15.5734L37.0628 18.987L38.8747 15.4209ZM35.9688 5.29608V17.2039H39.9688V5.29608H35.9688ZM32.1559 10.4927L38.8747 7.07914L37.0628 3.51301L30.3441 6.9266L32.1559 10.4927ZM29.25 0V8.70966H33.25V0H29.25Z" fill="white" mask="url(#path-3-inside-1)"/>
</svg>
