<svg width="46" height="47" viewBox="0 0 46 47" fill="none" xmlns="http://www.w3.org/2000/svg">
<path d="M15.5 6.5C15.5 4.83333 16.7 1.6 21.5 2C22.6667 2 25 2.8 25 6C25 9.2 25 13.3333 25 15M25 15L2.5 24.5C1.33334 25.8333 0.400005 28.5 6 28.5C11.6 28.5 33 27.8333 43 27.5C44.5 26.6667 46.5 24.5 42.5 22.5C38.5 20.5 29.1667 16.6667 25 15Z" stroke="white" stroke-width="2"/>
<path d="M5 29V38H25.5V28" stroke="white" stroke-width="2"/>
<path d="M21.5 44V38H18M14.5 38V46.5M14.5 38H8M14.5 38H18M6 38H8M8 38V45.5M8 38H18M18 38V42V38.5" stroke="white" stroke-width="2"/>
</svg>
