<svg width="20" height="15" viewBox="0 0 20 15" fill="none" xmlns="http://www.w3.org/2000/svg">
<path d="M19.5819 3.10573C19.4739 2.6743 19.254 2.279 18.9443 1.95976C18.6346 1.64053 18.2462 1.40867 17.8183 1.28759C16.2547 0.905784 10.0003 0.905784 10.0003 0.905784C10.0003 0.905784 3.74589 0.905784 2.18229 1.32396C1.75434 1.44503 1.36592 1.67689 1.05626 1.99613C0.746608 2.31536 0.526679 2.71066 0.418692 3.14209C0.13253 4.72893 -0.00744749 6.33867 0.000519665 7.95107C-0.00968074 9.57562 0.130305 11.1976 0.418692 12.7964C0.537743 13.2144 0.762599 13.5947 1.07153 13.9005C1.38047 14.2062 1.76304 14.4271 2.18229 14.5418C3.74589 14.96 10.0003 14.96 10.0003 14.96C10.0003 14.96 16.2547 14.96 17.8183 14.5418C18.2462 14.4208 18.6346 14.1889 18.9443 13.8697C19.254 13.5504 19.4739 13.1551 19.5819 12.7237C19.8658 11.1488 20.0058 9.55134 20.0001 7.95107C20.0103 6.32652 19.8703 4.70451 19.5819 3.10573V3.10573Z" fill="#FF0000"/>
<path d="M7.95488 10.9237L13.182 7.95107L7.95488 4.97842V10.9237Z" fill="white" stroke="white" stroke-linecap="round" stroke-linejoin="round"/>
</svg>
