<svg width="29" height="38" viewBox="0 0 29 38" fill="none" xmlns="http://www.w3.org/2000/svg">
<path d="M1 1V26V35L10 26H28V1H1Z" stroke="white" stroke-width="2"/>
<path d="M16.4766 16.9727H14.0273L13.7578 4.9375H16.7578L16.4766 16.9727ZM13.6758 20.6523C13.6758 20.207 13.8203 19.8398 14.1094 19.5508C14.3984 19.2539 14.793 19.1055 15.293 19.1055C15.793 19.1055 16.1875 19.2539 16.4766 19.5508C16.7656 19.8398 16.9102 20.207 16.9102 20.6523C16.9102 21.082 16.7695 21.4414 16.4883 21.7305C16.207 22.0195 15.8086 22.1641 15.293 22.1641C14.7773 22.1641 14.3789 22.0195 14.0977 21.7305C13.8164 21.4414 13.6758 21.082 13.6758 20.6523Z" fill="white"/>
</svg>
