<svg width="30" height="30" viewBox="0 0 30 30" fill="none" xmlns="http://www.w3.org/2000/svg">
<circle cx="15" cy="15" r="14" stroke="white" stroke-width="2"/>
<path d="M13.1016 18.9844C13.1016 17.9453 13.2305 17.1172 13.4883 16.5C13.7461 15.8828 14.2539 15.207 15.0117 14.4727C15.7773 13.7305 16.2617 13.2031 16.4648 12.8906C16.7773 12.4141 16.9336 11.8984 16.9336 11.3438C16.9336 10.6094 16.75 10.0508 16.3828 9.66797C16.0234 9.27734 15.4922 9.08203 14.7891 9.08203C14.1172 9.08203 13.5742 9.27344 13.1602 9.65625C12.7539 10.0312 12.5508 10.543 12.5508 11.1914H9.70312C9.71875 9.80859 10.1875 8.71484 11.1094 7.91016C12.0391 7.10547 13.2656 6.70312 14.7891 6.70312C16.3594 6.70312 17.582 7.10156 18.457 7.89844C19.3398 8.69531 19.7812 9.80859 19.7812 11.2383C19.7812 12.5117 19.1875 13.7656 18 15L16.5586 16.418C16.043 17.0039 15.7773 17.8594 15.7617 18.9844H13.1016ZM12.9023 22.6289C12.9023 22.168 13.0469 21.7969 13.3359 21.5156C13.625 21.2266 14.0156 21.082 14.5078 21.082C15.0078 21.082 15.4023 21.2305 15.6914 21.5273C15.9805 21.8164 16.125 22.1836 16.125 22.6289C16.125 23.0586 15.9844 23.418 15.7031 23.707C15.4219 23.9961 15.0234 24.1406 14.5078 24.1406C13.9922 24.1406 13.5938 23.9961 13.3125 23.707C13.0391 23.418 12.9023 23.0586 12.9023 22.6289Z" fill="white"/>
</svg>
