<svg width="22" height="22" viewBox="0 0 22 22" fill="none" xmlns="http://www.w3.org/2000/svg">
<path d="M11 5V11L15 13" stroke="white" stroke-width="2" stroke-linecap="round" stroke-linejoin="round"/>
<path fill-rule="evenodd" clip-rule="evenodd" d="M4.27477 5.01893C5.92323 3.1667 8.32536 2 11 2C15.9706 2 20 6.02944 20 11C20 15.9706 15.9706 20 11 20C6.36743 20 2.55236 16.5 2.05492 12H0.0448303C0.550059 17.6065 5.26194 22 11 22C17.0751 22 22 17.0751 22 11C22 4.92487 17.0751 0 11 0C7.54806 0 4.4675 1.59004 2.45077 4.07766L0.0720251 2.8501L0.57751 9.09856L5.99999 6L6.05558 6.09729L6.19318 6.00894L4.27477 5.01893Z" fill="white"/>
</svg>
