<svg width="20" height="19" viewBox="0 0 20 19" fill="none" xmlns="http://www.w3.org/2000/svg">
<path d="M16 7C16 5.4087 15.3679 3.88258 14.2426 2.75736C13.1174 1.63214 11.5913 1 10 1C8.4087 1 6.88258 1.63214 5.75736 2.75736C4.63214 3.88258 4 5.4087 4 7C4 14 1 16 1 16H19C19 16 16 14 16 7Z" stroke="white" stroke-width="2" stroke-linecap="round" stroke-linejoin="round"/>
<path d="M13 17C12.6951 17.6083 12.2575 18.1132 11.731 18.4642C11.2045 18.8153 10.6076 19 10 19C9.39241 19 8.79547 18.8153 8.26897 18.4642C7.74247 18.1132 7.30487 17.6083 7 17" fill="white"/>
</svg>
