<svg width="25" height="25" viewBox="0 0 25 25" fill="none" xmlns="http://www.w3.org/2000/svg">
<path d="M12.5973 15.8387C14.2541 15.8387 15.5973 14.4956 15.5973 12.8387C15.5973 11.1819 14.2541 9.83871 12.5973 9.83871C10.9404 9.83871 9.59729 11.1819 9.59729 12.8387C9.59729 14.4956 10.9404 15.8387 12.5973 15.8387Z" stroke="white" stroke-width="2" stroke-linecap="round" stroke-linejoin="round"/>
<path d="M19.9973 15.8387C19.8642 16.1403 19.8245 16.4749 19.8833 16.7993C19.9421 17.1237 20.0968 17.423 20.3273 17.6587L20.3873 17.7187C20.5732 17.9045 20.7208 18.125 20.8214 18.3678C20.9221 18.6106 20.9739 18.8709 20.9739 19.1337C20.9739 19.3965 20.9221 19.6568 20.8214 19.8996C20.7208 20.1424 20.5732 20.363 20.3873 20.5487C20.2015 20.7347 19.981 20.8822 19.7382 20.9828C19.4954 21.0835 19.2351 21.1353 18.9723 21.1353C18.7095 21.1353 18.4492 21.0835 18.2064 20.9828C17.9636 20.8822 17.743 20.7347 17.5573 20.5487L17.4973 20.4887C17.2616 20.2582 16.9623 20.1035 16.6379 20.0447C16.3135 19.9859 15.9789 20.0256 15.6773 20.1587C15.3815 20.2855 15.1293 20.496 14.9516 20.7642C14.7739 21.0325 14.6786 21.3469 14.6773 21.6687V21.8387C14.6773 22.3691 14.4666 22.8778 14.0915 23.2529C13.7164 23.628 13.2077 23.8387 12.6773 23.8387C12.1469 23.8387 11.6381 23.628 11.2631 23.2529C10.888 22.8778 10.6773 22.3691 10.6773 21.8387V21.7487C10.6695 21.4177 10.5624 21.0967 10.3698 20.8274C10.1772 20.5581 9.90803 20.353 9.59729 20.2387C9.29567 20.1056 8.9611 20.0659 8.6367 20.1247C8.31231 20.1835 8.01297 20.3382 7.77729 20.5687L7.71729 20.6287C7.53154 20.8147 7.31097 20.9622 7.06817 21.0628C6.82537 21.1635 6.56512 21.2153 6.30229 21.2153C6.03946 21.2153 5.77921 21.1635 5.53641 21.0628C5.29361 20.9622 5.07304 20.8147 4.88729 20.6287C4.70134 20.443 4.55382 20.2224 4.45317 19.9796C4.35252 19.7368 4.30072 19.4765 4.30072 19.2137C4.30072 18.9509 4.35252 18.6906 4.45317 18.4478C4.55382 18.205 4.70134 17.9845 4.88729 17.7987L4.94729 17.7387C5.17783 17.503 5.33248 17.2037 5.39129 16.8793C5.45011 16.5549 5.41041 16.2203 5.27729 15.9187C5.15053 15.6229 4.94005 15.3707 4.67176 15.193C4.40347 15.0153 4.08908 14.92 3.76729 14.9187H3.59729C3.06686 14.9187 2.55815 14.708 2.18308 14.3329C1.808 13.9578 1.59729 13.4491 1.59729 12.9187C1.59729 12.3883 1.808 11.8796 2.18308 11.5045C2.55815 11.1294 3.06686 10.9187 3.59729 10.9187H3.68729C4.01828 10.911 4.33929 10.8038 4.60859 10.6112C4.87788 10.4186 5.08301 10.1494 5.19729 9.83871C5.33041 9.53709 5.37011 9.20251 5.31129 8.87812C5.25248 8.55372 5.09783 8.25439 4.86729 8.01871L4.80729 7.95871C4.62134 7.77296 4.47382 7.55238 4.37317 7.30959C4.27252 7.06679 4.22072 6.80654 4.22072 6.54371C4.22072 6.28088 4.27252 6.02062 4.37317 5.77783C4.47382 5.53503 4.62134 5.31445 4.80729 5.12871C4.99304 4.94275 5.21361 4.79524 5.45641 4.69459C5.69921 4.59394 5.95946 4.54213 6.22229 4.54213C6.48512 4.54213 6.74537 4.59394 6.98817 4.69459C7.23097 4.79524 7.45154 4.94275 7.63729 5.12871L7.69729 5.18871C7.93297 5.41924 8.23231 5.57389 8.5567 5.63271C8.8811 5.69153 9.21567 5.65182 9.51729 5.51871H9.59729C9.89306 5.39194 10.1453 5.18146 10.323 4.91317C10.5007 4.64488 10.596 4.33049 10.5973 4.00871V3.83871C10.5973 3.30827 10.808 2.79957 11.1831 2.42449C11.5581 2.04942 12.0669 1.83871 12.5973 1.83871C13.1277 1.83871 13.6364 2.04942 14.0115 2.42449C14.3866 2.79957 14.5973 3.30827 14.5973 3.83871V3.92871C14.5986 4.25049 14.6939 4.56488 14.8716 4.83317C15.0493 5.10146 15.3015 5.31194 15.5973 5.43871C15.8989 5.57182 16.2335 5.61153 16.5579 5.55271C16.8823 5.49389 17.1816 5.33924 17.4173 5.10871L17.4773 5.04871C17.663 4.86275 17.8836 4.71524 18.1264 4.61459C18.3692 4.51394 18.6295 4.46213 18.8923 4.46213C19.1551 4.46213 19.4154 4.51394 19.6582 4.61459C19.901 4.71524 20.1215 4.86275 20.3073 5.04871C20.4932 5.23445 20.6408 5.45503 20.7414 5.69783C20.8421 5.94062 20.8939 6.20088 20.8939 6.46371C20.8939 6.72654 20.8421 6.98679 20.7414 7.22959C20.6408 7.47238 20.4932 7.69296 20.3073 7.87871L20.2473 7.93871C20.0168 8.17439 19.8621 8.47372 19.8033 8.79812C19.7445 9.12251 19.7842 9.45709 19.9173 9.75871V9.83871C20.0441 10.1345 20.2545 10.3867 20.5228 10.5644C20.7911 10.7421 21.1055 10.8374 21.4273 10.8387H21.5973C22.1277 10.8387 22.6364 11.0494 23.0115 11.4245C23.3866 11.7996 23.5973 12.3083 23.5973 12.8387C23.5973 13.3691 23.3866 13.8778 23.0115 14.2529C22.6364 14.628 22.1277 14.8387 21.5973 14.8387H21.5073C21.1855 14.84 20.8711 14.9353 20.6028 15.113C20.3345 15.2907 20.1241 15.5429 19.9973 15.8387V15.8387Z" stroke="white" stroke-width="2" stroke-linecap="round" stroke-linejoin="round"/>
</svg>
