<svg width="77" height="21" viewBox="0 0 77 21" fill="none" xmlns="http://www.w3.org/2000/svg">
<path d="M19.5819 6.10573C19.4739 5.6743 19.254 5.279 18.9443 4.95976C18.6346 4.64053 18.2462 4.40867 17.8183 4.28759C16.2547 3.90578 10.0003 3.90578 10.0003 3.90578C10.0003 3.90578 3.74589 3.90578 2.18229 4.32396C1.75434 4.44503 1.36592 4.67689 1.05626 4.99613C0.746608 5.31536 0.526679 5.71066 0.418692 6.14209C0.13253 7.72893 -0.00744749 9.33867 0.000519665 10.9511C-0.00968074 12.5756 0.130305 14.1976 0.418692 15.7964C0.537743 16.2144 0.762599 16.5947 1.07153 16.9005C1.38047 17.2062 1.76304 17.4271 2.18229 17.5418C3.74589 17.96 10.0003 17.96 10.0003 17.96C10.0003 17.96 16.2547 17.96 17.8183 17.5418C18.2462 17.4208 18.6346 17.1889 18.9443 16.8697C19.254 16.5504 19.4739 16.1551 19.5819 15.7237C19.8658 14.1488 20.0058 12.5513 20.0001 10.9511C20.0103 9.32652 19.8703 7.70451 19.5819 6.10573V6.10573Z" fill="#FF0000"/>
<path d="M7.95488 13.9237L13.182 10.9511L7.95488 7.97842V13.9237Z" fill="white" stroke="white" stroke-linecap="round" stroke-linejoin="round"/>
<path d="M25.4756 10.2676L28.4199 4.20312H30.8809L26.5918 12.2891V17H24.3594V12.2891L20.0615 4.20312H22.5312L25.4756 10.2676Z" fill="white"/>
<path d="M27.6943 12.1572C27.6943 11.2256 27.8789 10.3877 28.248 9.64355C28.6172 8.89355 29.1357 8.31934 29.8037 7.9209C30.4717 7.5166 31.2393 7.31445 32.1064 7.31445C33.3896 7.31445 34.4297 7.72754 35.2266 8.55371C36.0293 9.37988 36.4629 10.4756 36.5273 11.8408L36.5361 12.3418C36.5361 13.2793 36.3545 14.1172 35.9912 14.8555C35.6338 15.5938 35.1182 16.165 34.4443 16.5693C33.7764 16.9736 33.0029 17.1758 32.124 17.1758C30.7822 17.1758 29.707 16.7305 28.8984 15.8398C28.0957 14.9434 27.6943 13.751 27.6943 12.2627V12.1572ZM29.8301 12.3418C29.8301 13.3203 30.0322 14.0879 30.4365 14.6445C30.8408 15.1953 31.4033 15.4707 32.124 15.4707C32.8447 15.4707 33.4043 15.1895 33.8027 14.627C34.207 14.0645 34.4092 13.2412 34.4092 12.1572C34.4092 11.1963 34.2012 10.4346 33.7852 9.87207C33.375 9.30957 32.8154 9.02832 32.1064 9.02832C31.4092 9.02832 30.8555 9.30664 30.4453 9.86328C30.0352 10.4141 29.8301 11.2402 29.8301 12.3418Z" fill="white"/>
<path d="M42.8555 16.0684C42.2285 16.8066 41.3379 17.1758 40.1836 17.1758C39.1523 17.1758 38.3701 16.874 37.8369 16.2705C37.3096 15.667 37.0459 14.7939 37.0459 13.6514V7.49023H39.1816V13.625C39.1816 14.832 39.6826 15.4355 40.6846 15.4355C41.7217 15.4355 42.4219 15.0635 42.7852 14.3193V7.49023H44.9209V17H42.9082L42.8555 16.0684Z" fill="white"/>
<path d="M52.5469 5.99609H48.5566V17H46.3506V5.99609H42.3955V4.20312H52.5469V5.99609Z" fill="white"/>
<path d="M55.8555 16.0684C55.2285 16.8066 54.3379 17.1758 53.1836 17.1758C52.1523 17.1758 51.3701 16.874 50.8369 16.2705C50.3096 15.667 50.0459 14.7939 50.0459 13.6514V7.49023H52.1816V13.625C52.1816 14.832 52.6826 15.4355 53.6846 15.4355C54.7217 15.4355 55.4219 15.0635 55.7852 14.3193V7.49023H57.9209V17H55.9082L55.8555 16.0684Z" fill="white"/>
<path d="M67.4395 12.3418C67.4395 13.8184 67.1084 14.9932 66.4463 15.8662C65.79 16.7393 64.8848 17.1758 63.7305 17.1758C62.6172 17.1758 61.75 16.7744 61.1289 15.9717L61.0234 17H59.0898V3.5H61.2256V8.4043C61.8408 7.67773 62.6699 7.31445 63.7129 7.31445C64.873 7.31445 65.7842 7.74512 66.4463 8.60645C67.1084 9.46777 67.4395 10.6719 67.4395 12.2188V12.3418ZM65.3037 12.1572C65.3037 11.126 65.1221 10.3525 64.7588 9.83691C64.3955 9.32129 63.8682 9.06348 63.1768 9.06348C62.251 9.06348 61.6006 9.46777 61.2256 10.2764V14.1963C61.6064 15.0225 62.2627 15.4355 63.1943 15.4355C63.8623 15.4355 64.3779 15.1865 64.7412 14.6885C65.1045 14.1904 65.292 13.4375 65.3037 12.4297V12.1572Z" fill="white"/>
<path d="M72.2822 17.1758C70.9287 17.1758 69.8301 16.751 68.9863 15.9014C68.1484 15.0459 67.7295 13.9092 67.7295 12.4912V12.2275C67.7295 11.2783 67.9111 10.4316 68.2744 9.6875C68.6436 8.9375 69.1592 8.35449 69.8213 7.93848C70.4834 7.52246 71.2217 7.31445 72.0361 7.31445C73.3311 7.31445 74.3301 7.72754 75.0332 8.55371C75.7422 9.37988 76.0967 10.5488 76.0967 12.0605V12.9219H69.8828C69.9473 13.707 70.208 14.3281 70.665 14.7852C71.1279 15.2422 71.708 15.4707 72.4053 15.4707C73.3838 15.4707 74.1807 15.0752 74.7959 14.2842L75.9473 15.3828C75.5664 15.9512 75.0566 16.3936 74.418 16.71C73.7852 17.0205 73.0732 17.1758 72.2822 17.1758ZM72.0273 9.02832C71.4414 9.02832 70.9668 9.2334 70.6035 9.64355C70.2461 10.0537 70.0176 10.625 69.918 11.3574H73.9873V11.1992C73.9404 10.4844 73.75 9.94531 73.416 9.58203C73.082 9.21289 72.6191 9.02832 72.0273 9.02832Z" fill="white"/>
</svg>
