<svg width="22" height="17" viewBox="0 0 22 17" fill="none" xmlns="http://www.w3.org/2000/svg">
<path d="M20.5819 3.19995C20.4739 2.76851 20.254 2.37321 19.9443 2.05398C19.6346 1.73475 19.2462 1.50288 18.8183 1.38181C17.2547 1 11.0003 1 11.0003 1C11.0003 1 4.74589 1 3.18229 1.41817C2.75434 1.53925 2.36592 1.77111 2.05626 2.09034C1.74661 2.40958 1.52668 2.80488 1.41869 3.23631C1.13253 4.82314 0.992553 6.43288 1.00052 8.04529C0.990319 9.66984 1.13031 11.2919 1.41869 12.8906C1.53774 13.3087 1.7626 13.6889 2.07153 13.9947C2.38047 14.3004 2.76304 14.5213 3.18229 14.636C4.74589 15.0542 11.0003 15.0542 11.0003 15.0542C11.0003 15.0542 17.2547 15.0542 18.8183 14.636C19.2462 14.515 19.6346 14.2831 19.9443 13.9639C20.254 13.6446 20.4739 13.2493 20.5819 12.8179C20.8658 11.243 21.0058 9.64556 21.0001 8.04529C21.0103 6.42074 20.8703 4.79873 20.5819 3.19995V3.19995Z" stroke="white" stroke-width="2" stroke-linecap="round" stroke-linejoin="round"/>
<path d="M8.95488 11.0179L14.182 8.04529L8.95488 5.07263V11.0179Z" fill="white" stroke="white" stroke-linecap="round" stroke-linejoin="round"/>
</svg>
